<?xml version="1.0" encoding="utf-8"?>
<!-- Generator: Adobe Illustrator 24.0.2, SVG Export Plug-In . SVG Version: 6.00 Build 0)  -->
<svg version="1.1" id="svg" xmlns="http://www.w3.org/2000/svg" xmlns:xlink="http://www.w3.org/1999/xlink" x="0px" y="0px"
	 viewBox="0 0 400 400" style="enable-background:new 0 0 400 400;" xml:space="preserve">
<style type="text/css">
	.st0{fill-rule:evenodd;clip-rule:evenodd;fill:url(#path0_1_);}
</style>
<linearGradient id="path0_1_" gradientUnits="userSpaceOnUse" x1="199.8286" y1="384.1317" x2="199.8286" y2="15.8491">
	<stop  offset="0" style="stop-color:#A5FFFF"/>
	<stop  offset="1" style="stop-color:#8FCCD9"/>
</linearGradient>
<path id="path0" class="st0" d="M198.8,18C185.6,47,168.5,77,150.6,103.8c0,0.5,11-2.6,12.3-3.5c1.9-1.4,2.8-0.8,7.3,4.8
	c13.1,16.3,23.5,43.9,28.8,76.1c0.9,5.8,1.1,6.1,1.6,2.6c4.7-29.6,14.2-63.7,34.3-84.5c1.2,0.4,18,7.6,13.5,2.7
	C234.5,82.6,213,44,203,21.9C200.3,17.5,200.6,13.1,198.8,18 M202.3,76c20.5,24.1,14.5,1.9,3,41.7c-2.4,5-5.5,32.2-5.9,21.7
	c-2.2-16.1-8.4-35.1-15.7-49.9c3.2-1.7,12.1-10.5,15-14.9C200,72.6,199.8,72.5,202.3,76 M40.8,108.7c13.9,18.7,42.2,65.4,50.7,85.4
	c1.2,3.5,3.1-10.1,4-14.3c26.5-7.2,66,2.8,91.2,13.1c1.2,0.5,1.9,0.4,1.1-0.2c-1.8-1.4-3.9-3.2-6.3-5.2c-20.9-17.8-44.3-42.1-51-68
	c3-2.1,11.3-9.8,11-10.2c-22.7,2.1-79.7,1.2-101.2-1.4L40.8,108.7 M353.9,108.2c-24.3,2.9-71.6,2.7-95.4,1
	c-0.3,0.3,7.1,7.4,10.1,9.5c0.6,0.4,1,0.8,1,0.9c-7.1,26-32.6,52.5-57.8,73.5c26.6-10.2,65-20.7,92.6-13.4c0.5,3.7,2.6,13.9,3.3,15
	c3.1-4.9,13.8-27.4,17.9-33.6c8.6-15.2,19.8-32.8,29.8-47.3C358.8,108,362.9,107.3,353.9,108.2 M114.3,133.2
	c44.4,59.5,53.7,31.7-18.2,25.9c-3.2-31.8-16.9-17.1,13.4-27.2C113.5,130.5,112,129.9,114.3,133.2 M291.7,132.4
	c5.7,2.2,12.3,3.6,18.3,4.1c-3.5,7.7-5.5,15.4-6.2,22.7c-13.4-0.3-39,6-53.7,12c13.3-10.6,28.2-26.1,37.3-40.5
	C288.7,131.2,289.7,131.6,291.7,132.4 M171.5,151.6c0.2-0.9-2.2,17.5-2.5,21c8.2,8.2,18.8,18.1,26.9,24.5c2.2,1.8,2.3,1.9,1.5,1.4
	c-2.6-1.3-31.7-10.1-35.2-10.6c-4.3,0.9-14.4,9.7-16.9,10.9c-0.8,0.6-1.5,1.2-1.6,1.3c0.6,0.9,13.7,10.5,16.8,12.9
	c43.4-10.3,47.5-23.9,9.4,14.1c0.3,3.8,1.7,19.6,1.8,21.6c1.4,0.2,18-7.6,19.4-7.8c3.6-9.4,6.4-25,8.7-38.6c1.1,8.2,7,30.7,8.7,37.3
	c0,0,1.8,0.8,3.8,1.8c2.8,1.3,15.3,7.4,15.9,7.3c0.7-5.2,2-16.1,2.6-21.3c-7.8-8.1-22.3-20.9-28.4-26c4.8,2,20.4,6.6,28.6,8.8
	c4.2,1.2,6.6,1.8,7.2,1.8c-0.1,0.7,17.9-11.8,18-12.4c-0.7-0.7-13.8-10.5-16.9-12.8c-44.1,10.8-46.3,22.8-9.5-14
	c-0.4-3.8-1.6-19.6-1.7-21.4c-3.2-0.1-14.3,6-19.8,7.8c-2.8,9.4-7.2,29.6-8,36.1c-0.2,2.2-0.6,2-0.9-0.6c-0.3-3.1-5.9-25.7-7.7-32.5
	c-0.5-2-0.5-2-2-2.7C184.2,157.2,169.9,149.8,171.5,151.6 M87,214.9c-12.5,25.4-29.9,53.3-45.5,75.2c-1.6,2.2-1.9,2.1,5,1.5
	c20.5-2.2,70.2-3.1,92.6-0.9c7,1.6-7.9-9.3-8.7-10.2c-0.3-0.2,0.7-3.7,2.1-7.3c9.6-24.2,33.1-48.4,54.6-65.5
	c-28.2,9.2-69.5,19.9-91.7,12.4c-0.5-4.1-2.8-15.1-3.4-15.1C92,205.2,89.7,209.5,87,214.9 M307.3,206.1c-0.8,2.3-2.3,10.2-2.9,14.1
	c-22.7,7-61.8-2.2-92.3-12.9c21.7,16.8,44.2,41.6,52.7,60.4c8.5,18.5,3.8,10.1-6.3,23c14.7-0.4,19-1.4,41.5-1.1
	c24.4-0.2,38.3,0.9,53.6,2.1c6.3,0.6,6.6,0.5,4.8-1.5c-0.4-0.3-6-8.6-6.3-9c-14.4-21.1-30.6-48.3-40.7-69.1
	C307.8,204.6,307.9,204.7,307.3,206.1 M199.5,215.1c-4.9,31.3-14.5,64.8-34.4,85.5c-3.6-1.7-13.8-4.9-14.6-4.6
	c2.8,5.2,8.9,13,15.2,23.7c11.2,18.4,24.6,43.5,33.1,62.3c1.1,2.5,1.3,2.6,1.9,1.1c2.6-6.2,14-28.9,18.4-36.9
	c7.7-14.1,16-28.4,25.7-42.9c4.6-7,5.1-7.8,4.1-7.4c-3.4,0.9-10.5,3.1-14,4.7c-17.2-18-25.9-43.6-31.7-70
	C201.7,225.7,200.4,209.4,199.5,215.1 M150,228.9c-11.7,8.9-28.3,26.1-36.3,38.9c-0.9,1.3-1.1,1.5-1.7,1.3
	c-32.4-11.9-19.5,4-15.9-28C114.4,239.9,135,234.8,150,228.9 M255.5,230.8c15.5,5.8,31.6,9,48.4,10.2c4.7,34.6,15.5,15.3-16.5,28.3
	c-7.5-13.2-25.7-30.9-36.9-40.4C250.8,229.1,253,229.9,255.5,230.8 M200.4,259.6c1.5,11.3,5.2,25.7,9.8,37.2
	c1.7,4.4,1.9,4.7,4.3,9.9c1.6,3.5,1.7,3.8,1.2,4.1c-26.2,20.5-5.7,20.6-31.6,0.1c-0.6-0.4-0.6-0.5,1-4c6.8-14.4,12.3-32.5,14.1-46.3
	C199.9,257.1,200.1,256.8,200.4,259.6"/>
</svg>
