<?xml version="1.0" encoding="utf-8"?>
<!-- Generator: Adobe Illustrator 24.0.2, SVG Export Plug-In . SVG Version: 6.00 Build 0)  -->
<svg version="1.1" id="svg" xmlns="http://www.w3.org/2000/svg" xmlns:xlink="http://www.w3.org/1999/xlink" x="0px" y="0px"
	 viewBox="0 0 400 400" style="enable-background:new 0 0 400 400;" xml:space="preserve">
<style type="text/css">
	.st0{fill-rule:evenodd;clip-rule:evenodd;fill:url(#path0_1_);}
</style>
<linearGradient id="path0_1_" gradientUnits="userSpaceOnUse" x1="198.3332" y1="376.1715" x2="198.3332" y2="22.6189">
	<stop  offset="0" style="stop-color:#EFD458"/>
	<stop  offset="1" style="stop-color:#BA840A"/>
</linearGradient>
<path id="path0" class="st0" d="M198.8,22.6C156.9,52.3,116.6,91,84.3,128.8c-1.6,22.7,18,58.4,27.8,77.3
	c24.1-23.3,61.2-65.5,89.9-68.6c23.6,24.2,48.9,41.2,13,65.1c-16.2,16-29.7,17.7-6,37c20-13.5,44.8-34.2,62.1-52
	c-11.1-25.9-46.6-71.8-71.2-94c-19.9,14.1-44.5,37-64,53.2c-38.7,32.3,44.4-93.9,64.1-105c53.1,57.8,103.9,134,130,209.4
	c41.4-54.4,47.5-43.3,1.8-103C294.3,101.4,249.3,52.3,198.8,22.6 M67.3,151.7c-10,12.3-27.3,36.5-34.3,48.3
	c29.8,51.3,77.6,105.6,123.2,144.4c14.9,9.9,33.3,32.7,46.4,31.8c42-30.3,78-64.9,111.6-103.5c6.6-22-18.6-62-26.3-79
	c-24.9,26.2-56.5,57.3-87.9,70.3c-16.9-14.2-30.7-31.5-35.9-46.5c12.1-11.7,26.3-25.7,39-36.7c8.3-4-11.2-19.1-12-20.5
	c-12.6,7.7-52.8,40.6-62.1,52.2c15.3,31.5,34.5,54.8,57.4,80.2c18.2,20.8,12.8,13.2,33.7-2c15.8-13.3,30.8-26.2,46.6-39.8
	c21-21.2-6.4,30.4-12.6,40.1c-18,27.6-29.3,41.2-52,65.1c-3.9,6.4-11.5-10.6-15.9-13c-30.6-35.9-60.5-78.1-83.7-120.7
	C90.2,207.5,75.1,149.1,67.3,151.7"/>
</svg>
