<?xml version="1.0" encoding="utf-8"?>
<!-- Generator: Adobe Illustrator 24.0.2, SVG Export Plug-In . SVG Version: 6.00 Build 0)  -->
<svg version="1.1" id="svg" xmlns="http://www.w3.org/2000/svg" xmlns:xlink="http://www.w3.org/1999/xlink" x="0px" y="0px"
	 viewBox="0 0 400 400" style="enable-background:new 0 0 400 400;" xml:space="preserve">
<style type="text/css">
	.st0{fill-rule:evenodd;clip-rule:evenodd;fill:url(#path0_1_);}
</style>
<linearGradient id="path0_1_" gradientUnits="userSpaceOnUse" x1="200" y1="372.8132" x2="200" y2="6.3047">
	<stop  offset="0" style="stop-color:#05E6FF"/>
	<stop  offset="1" style="stop-color:#0069FE"/>
</linearGradient>
<path id="path0" class="st0" d="M189.8,27.5C150.5,30,115.1,44.8,85.4,69C69.1,84.1,36.2,115.3,47,137.3
	c6.5,13.3,31.5,17.3,39.1,6.3c49-73.8,162.4-80.1,218.6-12.4c55.5,60.4,39.5,166.3-31.4,207.6c94.7-71.1,36.6-237.4-99.4-212.7
	c-23.2,4.5-33.3,12.8-33.3,27.1c0,11.4,5.1,19.9,14,23.1c9.6,2.8,17.2-0.9,27.1-2.8C248.5,158.9,311,230,286.8,292.5
	c-22.2,65.2-98,75.6-155.1,50.6c-10.5-3.5-21.6-8.4-30.4-13.4c-3.5-2-3.4-2-2.4,0.4c5.1,16.5,35.9,32.6,59.4,37.5
	c137.5,34.5,257.9-108.8,199.4-237.9C329.1,64.7,260.2,23.2,189.8,27.5 M46.3,178.4c-39.7,11.2-9.9,68.8,22.5,41.4
	C86,203.2,70.1,172.9,46.3,178.4 M191.7,221c-91.3,14.5-56.3,149.4,29.9,119.2c10.5-2.9,29-19.4,30.8-26.9
	c-79.8,68.3-130.6-45.2-60.3-53.3c10.5,0,18,6.6,20.3,17.9c3,24.8,38.3,26.5,43.8,3.5C264.6,244.8,225,216.2,191.7,221 M80.8,260.8
	c-26.4,3.9-14.7,44.4,9.6,32.5C107.2,285.2,99.4,258.8,80.8,260.8"/>
</svg>
