<?xml version="1.0" encoding="utf-8"?>
<!-- Generator: Adobe Illustrator 24.0.2, SVG Export Plug-In . SVG Version: 6.00 Build 0)  -->
<svg version="1.1" id="svg" xmlns="http://www.w3.org/2000/svg" xmlns:xlink="http://www.w3.org/1999/xlink" x="0px" y="0px"
	 viewBox="0 0 400 400" style="enable-background:new 0 0 400 400;" xml:space="preserve">
<style type="text/css">
	.st0{fill-rule:evenodd;clip-rule:evenodd;fill:url(#path0_1_);}
</style>
<g id="svgg">
	<linearGradient id="path0_1_" gradientUnits="userSpaceOnUse" x1="199.695" y1="381.3697" x2="199.695" y2="19.7175">
		<stop  offset="0" style="stop-color:#FF6641"/>
		<stop  offset="1" style="stop-color:#EC3634"/>
	</linearGradient>
	<path id="path0" class="st0" d="M195.9,20.9C179.1,97.2,87.5,139,211.9,185.8c91.8,22,86.2,142-19.6,126
		c-31.7-5.3-33.3-42.6-9.8-57.7c-77.7-21.4-48.4,98.3,65.7,62c56.5-16.3,78-67,55.4-115c18,11.3,35.8,30.1,31.1,53.7
		c-14.8,46.7-94,64-131.7,98.7c-50.4-39.2-204.9-81.4-98-158.9c-63.4,68.8,52.6,123.8,29.1,100.9c-37.9-45,11.1-108.6,66.9-106.6
		c2.4-2.1-27.2-10.8-31.6-15.4c-24.4-13.8-39.2-33.5-39.2-52c0-4.9,0-4.9-2.2-0.8c-22.8,48.1-88.9,93.8-75.2,151.2
		c34,48.5,108.7,68.1,148.8,109.6c10.2-2.9,24-21,34.6-26.5c14.1-10.6,39.1-25.3,54-33.5c73.5-34.6,76.5-94.4,14.3-143.1
		c-16.7-10.1-36.7-45.6-38.8-63.7c-18.9,12-26.2,48.8-10.5,64.7c4.3,2.6,15.8,24.7,10.6,21.2c-30.1-27.5-43.9-59.3-26.5-103.8
		c-25.7,11.8-59.6,54.7-30.7,77.1c-59.8-49.5,40.7-68.2,17.8-112.9C225.3,55.6,197.8,12.2,195.9,20.9 M194.8,207.6
		c-16,0.5-41.8,20.3-38.1,31.2c46.6-21.9,78.1,18,61.5,51.9C280.8,274.7,251,198.3,194.8,207.6"/>
</g>
</svg>
