<?xml version="1.0" encoding="utf-8"?>
<!-- Generator: Adobe Illustrator 24.0.2, SVG Export Plug-In . SVG Version: 6.00 Build 0)  -->
<svg version="1.1" id="svg" xmlns="http://www.w3.org/2000/svg" xmlns:xlink="http://www.w3.org/1999/xlink" x="0px" y="0px"
	 viewBox="0 0 400 400" style="enable-background:new 0 0 400 400;" xml:space="preserve">
<style type="text/css">
	.st0{fill-rule:evenodd;clip-rule:evenodd;fill:url(#cus_1_);}
</style>
<linearGradient id="cus_1_" gradientUnits="userSpaceOnUse" x1="200.3634" y1="376.8259" x2="200.3634" y2="23.6395">
	<stop  offset="0" style="stop-color:#A4E829"/>
	<stop  offset="1" style="stop-color:#06AC2E"/>
</linearGradient>
<path id="cus" class="st0" d="M197,26.3c-26.5,25.2-36.8,69.2,0,89.2c38-7.7,40.2-54.8,6.4-88.7C199.7,22.7,200.1,22.7,197,26.3
	 M34.1,94.3c-2.9,0.6-5.5-0.5-4.6,2.8c4.2,34.9,20.5,45.2,45.7,42.3c-13.6,16.5-21.9,49.3-18.5,74.1c-11.2-11.3-24.7-9.1-37.4,6.9
	c-9.4,6.4,29.5,24.6,38.5,1.1c1.8,7.2,3.7,15,7,21.7c28.8,67.4,109.2,58.5,133.8,131c1.3,3.6,1.2,3.6,2.7-0.1
	c19-52.3,52.8-55.7,90.1-82c26.2-14.9,45.7-45.4,51.1-70.3c7,14,21,15.7,38.1,4c3-2,3-1.7,0.5-4.9c-12.6-16.4-26.7-18.9-37.9-7.2
	c2.9-22.4-2.8-55.5-18.5-74.5c27.8,5.4,43.9-14.1,45.9-44.2c-24.2-5.5-58,4.8-53.1,35.9c-17.5-17.2-43.7-27.7-64-25.4
	c-30,4.8-66.9,22.6-37.3,44.3c2.6,1.8,2.4,1.9,3.7-1.2c4.3-9.8,13.6-16.9,23.2-19c93.4-18.1,102.2,121,21,147.1
	c-28.8,13.1-51.4,22.8-64.1,45.8c-11.6-26.9-58.4-41.1-82.1-55.2C81.5,243.1,69,195,89.2,157.4c13.2-31.8,77.7-41.7,90.8-9.1
	c2.7,9.1,23.2-15.2,10.9-23.4c-29.4-28.6-80.4-23.4-108.3,6C84.2,104.6,67.8,91,34.1,94.3 M139.5,149.3
	c-38.4,1.9-49.2,43.6-21.7,70.3c-10.5,0.4-18.4,5.2-20.3,14.9c-0.8,3.6-0.8,3.7,0.8,2.3c12.5-13.4,42.7,1.4,61.6,14.7
	c7.9,4.3,26.6,15.2,19.5,9c-31.6-23.1-67.7-90.3-8-92.2c5.1,0,5,0.3,2.8-4.1C168.7,153.4,156.6,148.2,139.5,149.3 M248.7,149.5
	c-8.9-1.7-34,20.1-20.1,18.8c60.4,3.2,23.2,68.8-8.1,92.2c-3,2.6-2.4,2.6,3.4-0.3c21-10.2,59.6-41,77.3-23.7c1.8,1.7,2,1.3,1.2-2.6
	c-1.6-8.8-10-13.9-20.1-14.3C314.1,189.5,292.6,142.5,248.7,149.5"/>
</svg>
