<?xml version="1.0" encoding="utf-8"?>
<!-- Generator: Adobe Illustrator 24.0.2, SVG Export Plug-In . SVG Version: 6.00 Build 0)  -->
<svg version="1.1" id="svg" xmlns="http://www.w3.org/2000/svg" xmlns:xlink="http://www.w3.org/1999/xlink" x="0px" y="0px"
	 viewBox="0 0 400 400" style="enable-background:new 0 0 400 400;" xml:space="preserve">
<style type="text/css">
	.st0{fill-rule:evenodd;clip-rule:evenodd;fill:url(#path0_1_);}
</style>
<linearGradient id="path0_1_" gradientUnits="userSpaceOnUse" x1="200.0565" y1="374.0811" x2="200.0565" y2="25.8716">
	<stop  offset="0" style="stop-color:#FCA7FF"/>
	<stop  offset="1" style="stop-color:#7A519A"/>
</linearGradient>
<path id="path0" class="st0" d="M200.2,26c18.2,9.2,34.2,18.3,50,31.4c49,36,49.2,107-4.7,130c-56.9,23.3-111.1-64.3-36.5-73.8
	c-46.6-39.2-101.8-25.3-144.4,20.7c1.4-21.5,10.9-43.2,29.7-70.8c1.7-2.5,1.1-2.4-2.3,0.4c-47,36.6-72.3,99.2-64,159.2
	c2.2,20.3,11.9,47.7,22.2,64.7c0.4,0.4,0.4-1,0-7.8c-15.1-157.6,144-156.9,137.2-58.7c-4.3,32.9-44.2,48.9-64.2,16.1
	c-15.9,56.3,34,103.1,89.1,113.3c-19.5,10.9-56.6,12.3-77.8,9.6c40.8,20.8,105.5,17.7,149.1-6.9c25.4-12.6,56.9-43.3,68.5-67.1
	c-21.7,13.7-42.3,25.3-62.9,30.9c-69.7,27.5-136.9-59.2-77.7-108c32.7-27.3,81.8-2.1,61,38.7c-1.3,2.2-1.1,2.2,2.9,0.6
	c55.9-20.5,68-82.3,50.5-133.8c19.5,13.1,33.1,33.6,44,55.7c3.7,7.5,4.1,8,3.6,4.3C363.1,91,282.8,22.5,200.2,26"/>
</svg>
