<?xml version="1.0" encoding="utf-8"?>
<!-- Generator: Adobe Illustrator 24.0.2, SVG Export Plug-In . SVG Version: 6.00 Build 0)  -->
<svg version="1.1" id="svg" xmlns="http://www.w3.org/2000/svg" xmlns:xlink="http://www.w3.org/1999/xlink" x="0px" y="0px"
	 viewBox="0 0 400 400" style="enable-background:new 0 0 400 400;" xml:space="preserve">
<style type="text/css">
	.st0{fill-rule:evenodd;clip-rule:evenodd;fill:url(#cus_1_);}
</style>
<linearGradient id="cus_1_" gradientUnits="userSpaceOnUse" x1="200.1133" y1="375.7306" x2="200.1133" y2="24.197">
	<stop  offset="0" style="stop-color:#4BFBB2"/>
	<stop  offset="1" style="stop-color:#49F2AC"/>
</linearGradient>
<path id="cus" class="st0" d="M257.2,24.2c32.9,53.7,7.5,124.5-39.4,163c-2.9,2.6-2.9,2.7,3.7,1c33.8-8.8,70.6-26,86.2-56.8
	C328.2,89.9,303.3,35.4,257.2,24.2 M139.1,25.2c-38.9,12.5-60.3,52-52.5,90.4c6.4,30,32,49.6,62.6,62.8c9.8,4.3,37.7,12.9,35,10.7
	c-47.8-37.4-74.9-111.5-41.8-164.5C142.5,24.2,141.7,24.3,139.1,25.2 M63.3,77.2c-25.7,43.9-22.8,97.8,30.7,115.7
	c9.6,4.2,31.9,4.8,45.6,9.3c51.8,11.2,79.1,66.8,25.7,86.8c-6.5,3.7-10-1.4-15.8-4.7c-5-0.1-12.2-0.4-14.4,2.7
	c25.8,20.7,47.2,51.6,63.2,85.8c2.2,4.3,1.3,3.8,3.5-0.4c13.6-28.9,31.4-56.3,51.8-75.1c-0.1-0.4,5.4-5.6,8.8-8.3
	c2.3-1.8,2.5-2,2-2.5c-1.5-2.2-9.6-2.6-13.9-2.2c-5.7,3-9.2,8.4-15.7,4.7c-60.7-24.4-18.3-84.7,42.9-90.6
	c55.1-3,88.9-43.7,69.3-97.7c-0.2-0.8-1.2-3.4-1.2-4.2c-0.3-0.1-2.3-5-2.3-5.6c0-0.2-0.1-0.4-0.2-0.4c-0.2,0-1.3-2.6-1.3-3
	c-1.7-2.4-1.8-4.5-3.7-7.1c-2.5-4.7-3.2-5.2-3.2-2.2c0.1,1.5-0.9,5.8-1,7.2c-6.9,36.8-24.5,71-58.7,90.1
	c-26.1,13.9-70,33.9-74.5,56.3c-0.9,2.8-1,2.8-1.6,0.5c-1.5-14.9-33.8-37-56-47c-14.2-6.3-36.7-19.5-45.8-31.5
	c-17.1-18.2-29.7-48.3-33.1-78L63.3,77.2 M27.1,147.6c-5.7,20-7.6,45.7,2.1,63.8c10,21.6,37.5,36.6,59.8,33.2
	c12.7-1.8,29.9-7.7,46.5-16c15.3-9.2,32.8-2.5,34.7,11.9c1.6,3.5-1.6,14.5-4.8,15.3c-4,5.1-15.7,7.3-23.2,7.3c-2,0-2-0.2-1.5,3.6
	c1.4,12.2,17.1,15.2,26.4,10.7c12.8-5.5,17.4-26.4,11.2-41.7c-7.3-17.5-28.4-27.3-60.6-28.1C74.3,207.6,55.9,187.3,27.1,147.6
	 M370,151c-10.1,14.9-23.3,30.4-33.5,39c-30,29.9-103,4.3-116.1,48.9c-3.5,13-1.9,28.2,9.1,36.8c11.6,8.8,31.1,1.7,29.9-12.5
	c-47.7,1.9-33.2-53.3,4.1-35.1c11.6,6,33.1,14.1,43.6,15.8c44.1,7.2,78.1-32.3,69.4-79.4c-0.5-3.3-0.9-5.4-2.4-11.8
	C372.5,146.4,372.9,146.6,370,151 M201.3,281.7c5,9.9,13.4,17.2,23.4,20.1c2.5,0.7,2.5,0.8-0.1,1.5c-9.1,2.6-18.3-0.9-24.7-7.8
	c-6.4,6.9-15.6,10.4-24.7,7.8c-2.5-0.7-2.6-0.9-0.3-1.5C197.7,295.7,198.8,272.8,201.3,281.7 M202.1,309.6c4,3.7,8.7,6.4,13.5,8.6
	c-26.1,31.7-4.6,34.4-31.3-0.1c4.9-1.8,11.7-6.7,15.6-10.4C200,307.7,200.9,308.5,202.1,309.6"/>
</svg>
